<svg xmlns="http://www.w3.org/2000/svg" width="56" height="71" viewBox="0 0 56 71">
<style>
  .a{
    fill:none;
  }
  .b{
    stroke-width:2;
    stroke:#4A90E2;
  }
</style>
  <g class="a">
    <g class="b">
          <path d="M3 57.9L8.2 61.8C8.4 61.9 8.7 62 9 61.9L21.3 59.3C21.8 59.2 22.2 58.7 22.1 58.1 22 57.8 21.7 57.5 21.4 57.4L9.6 53C9.3 52.9 9 52.9 8.7 53.1L3.2 56.2C2.7 56.5 2.5 57.1 2.8 57.6 2.8 57.7 2.9 57.8 3 57.9Z" />
          <path d="M53.4 57.9C53.5 57.8 53.6 57.7 53.7 57.6 53.9 57.1 53.8 56.5 53.3 56.2L47.7 53.1C47.4 52.9 47.1 52.9 46.9 53L35 57.4C34.7 57.5 34.5 57.8 34.4 58.1 34.3 58.7 34.6 59.2 35.2 59.3L47.5 61.9C47.7 62 48 61.9 48.3 61.8L53.4 57.9Z" />
          <path d="M42.6 66.5C42.7 66.4 42.8 66.3 42.9 66.1 43.1 65.7 43 65.1 42.5 64.8L39.5 63.1C39.3 63 39 63 38.7 63.1L32.5 65.4C32.1 65.5 31.9 65.8 31.8 66.1 31.7 66.7 32.1 67.2 32.6 67.3L39.1 68.7C39.4 68.8 39.7 68.7 39.9 68.5L42.6 66.5Z" />
          <path d="M-5.2 0.6C-5.3 0.5-5.4 0.4-5.5 0.3 -5.7-0.2-5.6-0.8-5.1-1.1L-2.1-2.7C-1.9-2.9-1.6-2.9-1.3-2.8L4.9-0.5C5.3-0.4 5.5-0.1 5.6 0.3 5.7 0.8 5.3 1.3 4.8 1.4L-1.7 2.8C-2 2.9-2.3 2.8-2.5 2.6L-5.2 0.6Z" transform="translate(-207 -114)translate(207 114)translate(18.826602 65.868842)scale(-1 1)" />
          <path d="M54.8 27.3C54.8 27.2 54.8 27 54.7 26.9 54.6 26.4 54 26.1 53.5 26.3L42.1 30C41.9 30.1 41.7 30.3 41.5 30.5L31.8 52.8C31.6 53.1 31.7 53.5 31.9 53.8 32.2 54.2 32.8 54.4 33.3 54L52.8 40.3C53 40.2 53.2 39.9 53.2 39.6L54.8 27.3Z" />
          <path d="M1.6 27.3L3.2 39.6C3.2 39.9 3.4 40.2 3.6 40.3L23.1 54C23.6 54.4 24.2 54.2 24.5 53.8 24.7 53.5 24.7 53.1 24.6 52.8L14.8 30.5C14.7 30.3 14.5 30.1 14.2 30L2.9 26.3C2.4 26.1 1.8 26.4 1.6 26.9 1.6 27 1.6 27.2 1.6 27.3Z" />
          <path d="M29.1 2.3C29 2.2 28.9 2 28.7 2 28.3 1.7 27.6 1.8 27.4 2.3L18.2 17.2C18 17.4 18 17.7 18.1 18L27.2 51.6C27.3 51.9 27.6 52.2 27.9 52.3 28.5 52.4 29 52.1 29.2 51.6L38.3 18C38.4 17.7 38.4 17.4 38.2 17.2L29.1 2.3Z" />
    </g>
  </g>
</svg>
