<svg xmlns="http://www.w3.org/2000/svg" viewBox="0 0 625 937.5">
  <style>
		.st0{fill:#1EAB4B;}
		.st1{fill:#381B01;stroke:#381B01;stroke-width:5;}
		.st2{fill:#FFFFFF;stroke:#FFFFFF;stroke-linejoin:bevel;}
		.st3{fill:#FFFFFF;stroke:#FFFFFF;}
  </style>
  <g>
    <g>
      <path class="st0" d="M250 0v250H0v125h250v562.5h125V375h250V250H375V0H250z"/>
      <polygon class="st1" points="-583.3 712 -575 712 -575 712 "/>
    </g>
    <g>
      <path class="st2" d="M311.8 602.9h1.4l7.4-300.9h-16.2L311.8 602.9z"/>
      <g>
        <path class="st2" d="M294.8 341.1c-14.5 1.8-27.7-15.2-21-19.2 0.6-1.5 0.5-2.3-1.1-2 -15.8 2.2-25.8-11-24.1-24.7 0.1-0.9-0.5-1.1-1-1.1 -0.6 0-1.1 0.7-1.4 1.1 -4.9 7.9-13.2 12.7-20.8 17.8 -8.7 5.8-22.2 13.3-28 14.3 -5.1 0.9-13.2 1.8-16.2-2.4 -0.6-1 0-1.1 0.7-1.5 9.6-4.8 10.7-3.8 28.3-15 15.5-9.8 30.5-22.7 44.9-30 6.3-3.2 26-6.1 32.8 3.3 11.7 16-4.7 23-5.2 25.9 -0.9 5.5 4.5 15.6 18.5 11.9l1.8-0.6 0.4 19.5 -0.6 0.3C300.2 340.2 297.5 340.9 294.8 341.1L294.8 341.1z"/>
        <path class="st2" d="M242.4 304.1c0.5-0.5 2.6-1.5 2.7-0.7 0.3 2.3 1.5 5.4 2.9 7.9 0.5 0.9-0.5 1.9-1.2 2.7 -9 7.6-19.6 14.8-28.7 18.9 -2.9 1-6.2 1.6-9.3 1.3 -2.1-0.2-5.1 0-6.1-1.9 -0.2-0.4 0.1-1 0.4-1.4C217.3 325 228.2 316.8 242.4 304.1z"/>
        <path class="st2" d="M248.2 316c0.4-0.4 1.1-1 2-0.6 1.9 2.2 3 3.3 5.3 4.3 0.7 0.3 1.6 1.3 0.4 2.3 -12.7 10.7-22.3 19.9-34.9 16.4 -0.4-0.1-0.3-1.4 0-1.6C228.5 332.6 237.1 327.9 248.2 316L248.2 316z"/>
        <path class="st2" d="M258.5 322.5c2-1.3 0.3 0.3 8.9 0.9 1.1 0.1-0.1 2.4-0.5 3.5 -3.9 5.7-10.6 11-16.3 13.7 -2.7 1.3-6.4 2-9.1 0.6 -0.3-0.1-0.3-0.6-0.5-0.8 -0.6-0.6 3.7-3.6 7.6-7.2C252.2 330 257.4 324.3 258.5 322.5z"/>
        <g>
          <path class="st2" d="M330.2 341.1c14.5 1.8 27.7-15.2 21-19.2 -0.7-1.5-0.5-2.3 1.1-2 15.8 2.2 25.8-11 24.1-24.7 -0.1-0.9 0.5-1.1 1-1.1 0.6 0 1.1 0.7 1.4 1.1 4.9 7.9 13.2 12.7 20.8 17.8 8.7 5.8 22.2 13.3 28 14.3 5.1 0.9 13.2 1.8 16.2-2.4 0.6-1 0-1.1-0.7-1.5 -9.6-4.8-10.7-3.8-28.3-15 -15.5-9.8-30.5-22.7-44.9-30 -6.3-3.2-26-6.1-32.8 3.3 -11.7 16 4.7 23 5.2 25.9 0.9 5.5-4.5 15.6-18.5 11.9l-1.8-0.6 -0.4 19.5 0.6 0.3C324.8 340.2 327.5 340.9 330.2 341.1L330.2 341.1z"/>
          <path class="st2" d="M382.6 304.1c-0.5-0.5-2.6-1.5-2.7-0.7 -0.3 2.3-1.5 5.4-2.9 7.9 -0.5 0.9 0.5 1.9 1.2 2.7 9 7.6 19.6 14.8 28.7 18.9 2.9 1 6.2 1.6 9.3 1.3 2.1-0.2 5.1 0 6.1-1.9 0.2-0.4-0.1-1-0.4-1.4C407.7 325 396.8 316.8 382.6 304.1z"/>
          <path class="st2" d="M376.8 316c-0.4-0.4-1.1-1-2-0.6 -1.9 2.2-3 3.3-5.3 4.3 -0.7 0.3-1.6 1.3-0.4 2.3 12.7 10.7 22.3 19.9 34.9 16.4 0.4-0.1 0.3-1.4 0-1.6C396.5 332.6 387.9 327.9 376.8 316L376.8 316z"/>
          <path class="st2" d="M366.5 322.5c-2-1.3-0.3 0.3-8.9 0.9 -1.1 0.1 0.1 2.4 0.5 3.5 3.9 5.7 10.6 11 16.3 13.7 2.7 1.3 6.4 2 9.1 0.6 0.3-0.1 0.3-0.6 0.5-0.8 0.6-0.6-3.7-3.6-7.6-7.2C372.8 330 367.6 324.3 366.5 322.5L366.5 322.5z"/>
        </g>
      </g>
      <path class="st3" d="M312.5 274.6c6.8 0 12.3 5.5 12.3 12.3 0 6.8-5.5 12.3-12.3 12.3s-12.3-5.5-12.3-12.3C300.2 280.2 305.7 274.6 312.5 274.6z"/>
      <path class="st2" d="M355.4 373c0.8-8.9-6.3-19-17.7-20 -4-0.3-9.9-0.4-13.4 2.7 -3.3 2.9 5.3 9.1 9.7 9.5 6 0.6 9.1-2.3 10.2-4 0.4-0.6 1-0.3 1.3 0.2 2.7 20.3-18 24.9-33.1 29.2 3.1 0.9 6 1.8 8.4 2.7 4.2 1.8 7.8 3.6 10.9 5.6C343.7 393 354.4 384.7 355.4 373z"/>
      <path class="st2" d="M299.8 550.8c-7.2 7.3-6.6 18.2 1.2 25.9 -1.2-8-4.2-14 4.8-21.3 2.2-1.8 4.4-3.2 6.7-4.4 -2.5-1.4-5.1-2.8-8-4.7C302.7 548 301 549.5 299.8 550.8z"/>
      <path class="st2" d="M327 454.2c-4.7-3-9.8-5.6-14.5-8.3 -2.8-1.5-5.4-3.1-7.7-4.7 -13.4-9.3-13.5-25.2 6-33 0.6-0.2 1.1-0.5 1.7-0.7 -5.8-2.3-12.8-5.1-19.3-8.5 -23.6 15.2-15.7 35.9-8.6 44.2 3.5 4 8.3 7.6 13.4 10.9 4.8 3.2 9.9 6.2 14.5 9.3 3.5 2.3 6.6 4.7 9.1 7.3 8.8 9 1.5 19.1-2.1 21.8 -2.3 1.7-4.6 3.2-7 4.7 5.1 3.1 10.2 6.1 14.6 10.2 5.9-4.6 11.2-10.4 14.1-18.1C348 471.4 338.9 461.7 327 454.2L327 454.2z"/>
      <path class="st2" d="M331.8 399.1c-3.1-2-6.7-3.9-10.9-5.6 -2.4-1-5.3-1.9-8.4-2.7 -15.1-4.3-35.8-8.9-33.1-29.2 0.2-0.6 0.9-0.8 1.3-0.2 1.1 1.7 4.2 4.6 10.2 4 4.5-0.4 13-6.6 9.7-9.5 -3.4-3.1-9.4-3.1-13.4-2.7 -11.4 1-18.5 11.1-17.7 20 1 11.7 11.7 20 23.6 26.1 6.6 3.4 13.5 6.1 19.3 8.5 0.6 0.2 1.2 0.5 1.7 0.7 19.5 7.8 19.4 23.6 6 33 -2.3 1.6-5 3.2-7.7 4.7 4.7 2.6 9.8 5.3 14.5 8.3 5.1-3.3 9.9-6.9 13.4-10.9C347.5 435 355.5 414.3 331.8 399.1L331.8 399.1z"/>
      <path class="st2" d="M325.2 550.8c-1.3-1.3-2.9-2.8-4.7-4.5 -2.5-2.3-5.4-5-8-7.7 -1.9-1.9-3.6-3.9-5.1-5.9 -6.2-8.2-0.2-13.4 4.6-15.9 0.2-0.1 0.3-0.2 0.5-0.3 -4.6-2.4-9.8-5.3-14.6-9.1 -1 0.9-2 1.9-2.9 3 -8.3 9.8-6.1 21.6 0 27.9 3.5 3.6 6.6 6.1 9.5 8 2.9 1.9 5.5 3.2 8 4.7 2.3 1.3 4.5 2.6 6.7 4.4 9 7.3 6 13.3 4.8 21.3C331.8 569 332.4 558.1 325.2 550.8z"/>
      <path class="st2" d="M330 510.4c-0.9-1.1-1.9-2.1-2.9-3 -4.4-4.1-9.6-7.1-14.6-10.2 -2.4-1.5-4.8-3-7-4.7 -3.6-2.7-10.9-12.8-2.1-21.8 2.5-2.5 5.6-4.9 9.1-7.3 -4.6-3.1-9.7-6.1-14.5-9.3 -11.8 7.5-20.9 17.3-14.2 35.1 2.9 7.7 8.2 13.6 14.1 18.1 4.8 3.7 10 6.6 14.6 9.1 0.2 0.1 0.4 0.2 0.5 0.3 4.8 2.5 10.8 7.8 4.6 15.9 -1.5 1.9-3.3 3.9-5.1 5.9 2.7 2.7 5.5 5.4 8 7.7 2.9-1.9 6-4.3 9.5-8C336.1 532 338.3 520.3 330 510.4L330 510.4z"/>
    </g>
  </g>
</svg>
